<svg xmlns="http://www.w3.org/2000/svg" viewBox="0 0 932.52 455.88"><defs><style>.cls-1,.cls-3{fill:#fff;}.cls-2{fill:none;stroke:#fff;stroke-miterlimit:10;stroke-width:2px;}.cls-3{font-size:20px;font-family:ArialMT, Arial;letter-spacing:0.05em;}.cls-4{letter-spacing:0.03em;}</style></defs><title>design-2</title><g id="Layer_2" data-name="Layer 2"><g id="Layer_1-2" data-name="Layer 1"><path class="cls-1" d="M235.56,293V453.88H2V293H235.56m2-2H0V455.88H237.56V291Z"/><path class="cls-1" d="M583,293V453.88H349.48V293H583m2-2H347.48V455.88H585V291Z"/><path class="cls-1" d="M930.52,293V453.88H697V293H930.52m2-2H695V455.88H932.52V291Z"/><path class="cls-1" d="M583.56,2V162.88H350V2H583.56m2-2H348V164.88H585.56V0Z"/><line class="cls-2" x1="521.52" y1="165" x2="759.52" y2="291"/><line class="cls-2" x1="411.52" y1="165" x2="173.52" y2="291"/><text class="cls-3" transform="translate(372.4 89.32)">SE<tspan class="cls-4" x="28.68" y="0">R</tspan><tspan x="43.76" y="0">VICE DESIGN</tspan></text><text class="cls-3" transform="translate(396.44 372.32)">EXPERIENCE<tspan x="28.12" y="24">DESIGN</tspan></text><text class="cls-3" transform="translate(748.58 360.32)">CUS<tspan class="cls-4" x="45.23" y="0">T</tspan><tspan x="58.08" y="0">OMER </tspan><tspan x="-8.42" y="24">EXPERIENCE </tspan><tspan x="22.98" y="48">DESIGN</tspan></text><text class="cls-3" transform="translate(64.28 372.32)">DECISION <tspan x="-28.72" y="24">ARCHITECTURE</tspan></text><line class="cls-2" x1="467.52" y1="165" x2="467.52" y2="291"/></g></g></svg>