<svg xmlns="http://www.w3.org/2000/svg" viewBox="0 0 933.04 746.88"><defs><style>.cls-1,.cls-3{fill:#fff;}.cls-2{fill:none;stroke:#fff;stroke-miterlimit:10;stroke-width:2px;}.cls-3{font-size:20px;font-family:ArialMT, Arial;letter-spacing:0.05em;}.cls-4{letter-spacing:0.01em;}.cls-5{letter-spacing:-0.02em;}.cls-6{letter-spacing:-0.01em;}</style></defs><title>design-1</title><g id="Layer_2" data-name="Layer 2"><g id="Layer_1-2" data-name="Layer 1"><path class="cls-1" d="M235.56,293V453.88H2V293H235.56m2-2H0V455.88H237.56V291Z"/><path class="cls-1" d="M583,293V453.88H349.48V293H583m2-2H347.48V455.88H585V291Z"/><path class="cls-1" d="M930.52,293V453.88H697V293H930.52m2-2H695V455.88H932.52V291Z"/><path class="cls-1" d="M583.56,2V162.88H350V2H583.56m2-2H348V164.88H585.56V0Z"/><path class="cls-1" d="M236.08,584V744.88H2.52V584H236.08m2-2H.52V746.88H238.08V582Z"/><path class="cls-1" d="M583.56,584V744.88H350V584H583.56m2-2H348V746.88H585.56V582Z"/><path class="cls-1" d="M931,584V744.88H697.48V584H931m2-2H695.48V746.88H933V582Z"/><line class="cls-2" x1="521.52" y1="165" x2="759.52" y2="291"/><line class="cls-2" x1="411.52" y1="165" x2="173.52" y2="291"/><text class="cls-3" transform="translate(406.4 89.32)">UX DESIGN</text><text class="cls-3" transform="translate(402.82 663.32)">INDUSTRIA<tspan class="cls-4" x="116.78" y="0">L</tspan><tspan x="22.74" y="24">DESIGN</tspan></text><text class="cls-3" transform="translate(739.15 663.32)">INFORM<tspan class="cls-5" x="84.88" y="0">A</tspan><tspan x="97.73" y="0">TION</tspan><tspan x="33.41" y="24">DESIGN</tspan></text><text class="cls-3" transform="translate(19.78 663.32)">USER<tspan class="cls-6" x="59.57" y="0"> </tspan><tspan x="65.02" y="0">ASSIS</tspan><tspan class="cls-5" x="128.94" y="0">T</tspan><tspan x="140.67" y="0">ANCE</tspan><tspan x="58.78" y="24">DESIGN</tspan></text><text class="cls-3" transform="translate(731.08 381.32)">VISUA<tspan class="cls-4" x="65.02" y="0">L</tspan><tspan x="76.4" y="0" xml:space="preserve"> DESIGN</tspan></text><text class="cls-3" transform="translate(392.62 372.32)">INTERACTION<tspan x="31.94" y="24">DESIGN</tspan></text><text class="cls-3" transform="translate(41.87 372.32)">INFORM<tspan class="cls-5" x="84.88" y="0">A</tspan><tspan x="97.73" y="0">TION </tspan><tspan x="-6.3" y="24">ARCHITECTURE</tspan></text><line class="cls-2" x1="467.52" y1="165" x2="467.52" y2="291"/><line class="cls-2" x1="466.52" y1="456" x2="466.52" y2="582"/><line class="cls-2" x1="411.52" y1="456" x2="173.52" y2="582"/><line class="cls-2" x1="814.52" y1="456" x2="814.52" y2="582"/></g></g></svg>