<svg xmlns="http://www.w3.org/2000/svg" viewBox="0 0 932.52 164.88"><defs><style>.cls-1,.cls-2{fill:#fff;}.cls-2{font-size:20px;font-family:ArialMT, Arial;letter-spacing:0.05em;}.cls-3{letter-spacing:-0.01em;}.cls-4{letter-spacing:0.03em;}.cls-5{fill:none;stroke:#fff;stroke-miterlimit:10;stroke-width:2px;}</style></defs><title>development</title><g id="Layer_2" data-name="Layer 2"><g id="Layer_1-2" data-name="Layer 1"><path class="cls-1" d="M235.56,2V162.88H2V2H235.56m2-2H0V164.88H237.56V0Z"/><path class="cls-1" d="M583,2V162.88H349.48V2H583m2-2H347.48V164.88H585V0Z"/><path class="cls-1" d="M930.52,2V162.88H697V2H930.52m2-2H695V164.88H932.52V0Z"/><text class="cls-2" transform="translate(403.55 81.32)">FRON<tspan class="cls-3" x="60.66" y="0">T</tspan><tspan x="72.77" y="0">-END</tspan><tspan x="-18.06" y="24">DEVELOPMEN</tspan><tspan class="cls-4" x="130.87" y="24">T</tspan></text><text class="cls-2" transform="translate(767.27 81.32)">QUALIT<tspan class="cls-4" x="78.24" y="0">Y</tspan><tspan x="-20.63" y="24">ASSURANCE</tspan></text><text class="cls-2" transform="translate(41.27 89.32)">PRO<tspan class="cls-4" x="46.34" y="0">T</tspan><tspan x="59.2" y="0">OTYPING</tspan></text><line class="cls-5" x1="237.5" y1="82.5" x2="347.5" y2="82.5"/><line class="cls-5" x1="585" y1="83" x2="695" y2="83"/></g></g></svg>