<svg xmlns="http://www.w3.org/2000/svg" viewBox="0 0 1280 746.88"><defs><style>.cls-1,.cls-3{fill:#fff;}.cls-2{fill:none;stroke:#fff;stroke-miterlimit:10;stroke-width:2px;}.cls-3{font-size:20px;font-family:ArialMT, Arial;letter-spacing:0.05em;}.cls-4{letter-spacing:-0.02em;}.cls-5{letter-spacing:0.03em;}.cls-6{letter-spacing:0.01em;}</style></defs><title>research</title><g id="Layer_2" data-name="Layer 2"><g id="Layer_1-2" data-name="Layer 1"><path class="cls-1" d="M235.56,293V453.88H2V293H235.56m2-2H0V455.88H237.56V291Z"/><path class="cls-1" d="M583,293V453.88H349.48V293H583m2-2H347.48V455.88H585V291Z"/><path class="cls-1" d="M930.52,293V453.88H697V293H930.52m2-2H695V455.88H932.52V291Z"/><path class="cls-1" d="M1278,293V453.88H1044.44V293H1278m2-2H1042.44V455.88H1280V291Z"/><path class="cls-1" d="M409.56,2V162.88H176V2H409.56m2-2H174V164.88H411.56V0Z"/><path class="cls-1" d="M757,2V162.88H523.48V2H757m2-2H521.48V164.88H759V0Z"/><path class="cls-1" d="M1104.52,2V162.88H871V2h233.56m2-2H869V164.88h237.56V0Z"/><path class="cls-1" d="M409.56,584V744.88H176V584H409.56m2-2H174V746.88H411.56V582Z"/><path class="cls-1" d="M757,584V744.88H523.48V584H757m2-2H521.48V746.88H759V582Z"/><path class="cls-1" d="M1104.52,584V744.88H871V584h233.56m2-2H869V746.88h237.56V582Z"/><line class="cls-2" x1="869" y1="456" x2="933" y2="582"/><line class="cls-2" x1="521" y1="456" x2="585" y2="582"/><line class="cls-2" x1="695" y1="165" x2="759" y2="291"/><line class="cls-2" x1="933" y1="165" x2="869" y2="291"/><line class="cls-2" x1="585" y1="165" x2="521" y2="291"/><line class="cls-2" x1="238" y1="165" x2="174" y2="291"/><line class="cls-2" x1="412" y1="456" x2="348" y2="582"/><line class="cls-2" x1="412" y1="82" x2="521" y2="82"/><line class="cls-2" x1="933" y1="373" x2="1042" y2="373"/><line class="cls-2" x1="759" y1="672" x2="868" y2="672"/><text class="cls-3" transform="translate(232.88 90.32)">ANA<tspan class="cls-4" x="44.12" y="0">L</tspan><tspan x="54.76" y="0">YTICS</tspan></text><text class="cls-3" transform="translate(560.88 90.32)">UX RESEARCH</text><text class="cls-3" transform="translate(895.88 90.32)">USER FEEDBACK</text><text class="cls-3" transform="translate(203.88 674.32)">EXPE<tspan class="cls-5" x="57.36" y="0">RT</tspan><tspan x="85.3" y="0" xml:space="preserve"> REVIEW</tspan></text><text class="cls-3" transform="translate(903.88 674.32)">CARD SO<tspan class="cls-5" x="98.12" y="0">R</tspan><tspan x="113.21" y="0">TING</tspan></text><text class="cls-3" transform="translate(581.65 663.32)">USABILIT<tspan class="cls-5" x="96.92" y="0">Y</tspan><tspan x="110.89" y="0"> </tspan><tspan x="11.89" y="24">TESTING</tspan></text><text class="cls-3" transform="translate(50.88 383.32)">A/B<tspan class="cls-5" x="35.24" y="0"> </tspan><tspan x="41.43" y="0">TESTING</tspan></text><text class="cls-3" transform="translate(407.88 383.32)">USABILIT<tspan class="cls-5" x="96.92" y="0">Y</tspan></text><text class="cls-3" transform="translate(720.88 383.32)">USER RESEARCH</text><text class="cls-3" transform="translate(1086.24 372.32)">CONTEXTUA<tspan class="cls-6" x="132.34" y="0">L</tspan><tspan x="143.72" y="0"> </tspan><tspan x="30.33" y="24">INQUI</tspan><tspan class="cls-5" x="90.89" y="24">RY</tspan></text></g></g></svg>