<svg xmlns="http://www.w3.org/2000/svg" viewBox="0 0 1453.52 455.88"><defs><style>.cls-1,.cls-3{fill:#fff;}.cls-2{fill:none;stroke:#fff;stroke-miterlimit:10;stroke-width:2px;}.cls-3{font-size:20px;font-family:ArialMT, Arial;letter-spacing:0.05em;}.cls-4{letter-spacing:-0.02em;}.cls-5{letter-spacing:0.03em;}</style></defs><title>strategy</title><g id="Layer_2" data-name="Layer 2"><g id="Layer_1-2" data-name="Layer 1"><path class="cls-1" d="M235.56,2V162.88H2V2H235.56m2-2H0V164.88H237.56V0Z"/><path class="cls-1" d="M583,2V162.88H349.48V2H583m2-2H347.48V164.88H585V0Z"/><path class="cls-1" d="M930.52,2V162.88H697V2H930.52m2-2H695V164.88H932.52V0Z"/><path class="cls-1" d="M1278,2V162.88H1044.44V2H1278m2-2H1042.44V164.88H1280V0Z"/><path class="cls-1" d="M756.56,293V453.88H523V293H756.56m2-2H521V455.88H758.56V291Z"/><path class="cls-1" d="M1104,293V453.88H870.48V293H1104m2-2H868.48V455.88H1106V291Z"/><path class="cls-1" d="M1451.52,293V453.88H1218V293h233.56m2-2H1216V455.88h237.56V291Z"/><line class="cls-2" x1="1216" y1="165" x2="1280" y2="291"/><line class="cls-2" x1="868" y1="165" x2="932" y2="291"/><line class="cls-2" x1="759" y1="165" x2="695" y2="291"/><line class="cls-2" x1="933" y1="82" x2="1042" y2="82"/><line class="cls-2" x1="585" y1="82" x2="694" y2="82"/><line class="cls-2" x1="1106" y1="381" x2="1215" y2="381"/><text class="cls-3" transform="translate(914.09 372.32)">COMPETITIVE<tspan x="21.11" y="24">ANA</tspan><tspan class="cls-4" x="65.24" y="24">L</tspan><tspan x="75.88" y="24">YSIS</tspan></text><text class="cls-3" transform="translate(65.73 81.32)">CONTEN<tspan class="cls-5" x="90.44" y="0">T</tspan><tspan x="-5.32" y="24">STR</tspan><tspan class="cls-4" x="37.68" y="24">A</tspan><tspan x="50.53" y="24">TEG</tspan><tspan class="cls-5" x="94.64" y="24">Y</tspan></text><text class="cls-3" transform="translate(388.88 92.32)">UX STR<tspan class="cls-4" x="79.34" y="0">A</tspan><tspan x="92.2" y="0">TEG</tspan><tspan class="cls-5" x="136.31" y="0">Y</tspan></text><text class="cls-3" transform="translate(760.61 81.32)">PRODUC<tspan class="cls-5" x="92.67" y="0">T</tspan><tspan x="-4.21" y="24">STR</tspan><tspan class="cls-4" x="38.79" y="24">A</tspan><tspan x="51.64" y="24">TEG</tspan><tspan class="cls-5" x="95.76" y="24">Y</tspan></text><text class="cls-3" transform="translate(1120.04 81.32)">DESIGN<tspan x="-15.63" y="24">STR</tspan><tspan class="cls-4" x="27.37" y="24">A</tspan><tspan x="40.22" y="24">TEG</tspan><tspan class="cls-5" x="84.33" y="24">Y</tspan></text><text class="cls-3" transform="translate(602.87 373.32)">BRAND<tspan x="-19.47" y="24">STR</tspan><tspan class="cls-4" x="23.53" y="24">A</tspan><tspan x="36.39" y="24">TEG</tspan><tspan class="cls-5" x="80.5" y="24">Y</tspan></text><text class="cls-3" transform="translate(1265.91 373.32)">EXPERIENCE<tspan x="12.49" y="24">STR</tspan><tspan class="cls-4" x="55.49" y="24">A</tspan><tspan x="68.34" y="24">TEG</tspan><tspan class="cls-5" x="112.46" y="24">Y</tspan></text><line class="cls-2" x1="238" y1="84" x2="347" y2="84"/></g></g></svg>